<?xml version="1.0" encoding="utf-8"?>
<!-- Generator: Adobe Illustrator 25.1.0, SVG Export Plug-In . SVG Version: 6.00 Build 0)  -->
<svg version="1.1" id="Layer_1" xmlns="http://www.w3.org/2000/svg" xmlns:xlink="http://www.w3.org/1999/xlink" x="0px" y="0px"
	 viewBox="0 0 256 48" style="enable-background:new 0 0 256 48;" xml:space="preserve">
<style type="text/css">
	.st0{fill:none;stroke:#53BCF9;stroke-width:4.45;stroke-linecap:round;stroke-linejoin:round;}
	.st1{fill-rule:evenodd;clip-rule:evenodd;fill:#53BCF9;}
</style>
<polyline class="st0" points="151.2,10.5 133.8,10.5 133.8,37.6 151.2,37.6 "/>
<polyline class="st0" points="217,10.5 199.6,10.5 199.6,37.6 217,37.6 "/>
<line class="st0" x1="211.2" y1="24" x2="199.6" y2="24"/>
<line class="st0" x1="145.4" y1="24" x2="133.8" y2="24"/>
<polyline class="st0" points="232.5,37.5 232.5,10.4 253.8,37.5 253.8,10.4 "/>
<path class="st0" d="M166.7,25.9h11.6c4.3,0,7.7-3.5,7.7-7.7s-3.5-7.7-7.7-7.7h-11.6v27.1"/>
<path class="st0" d="M26.4,14.3c-2.5-2.5-5.8-3.9-9.7-3.9C9,10.5,3.2,16.3,3.2,24S9,37.5,16.8,37.5c3.9,0,7.2-1.5,9.7-3.9"/>
<path class="st0" d="M120.3,24c0,7.7-5.8,13.5-13.5,13.5H97V10.4h9.7C114.5,10.4,120.3,16.3,120.3,24L120.3,24z"/>
<path class="st1" d="M58.6,1.8L58,2.3c-1.3,1-2,2.6-2,4.3v35.3c0,1.7,0.7,3.3,2,4.3c1.8,1.4,4.3,1.4,6-0.1l22-18.2
	c1.2-1,1.9-2.6,1.9-4.2v-0.1c0-1.7-0.7-3.2-2-4.3L64.6,1.9C62.9,0.4,60.4,0.4,58.6,1.8z M34.2,21.8l13.2-10.2c0.8-0.6,1.8,0,1.8,1v3
	c0,0.4-0.2,0.7-0.4,0.9l-8.3,6.9v0.1l8.2,6.5c0.3,0.2,0.5,0.6,0.5,1v3.4c0,1-1.1,1.5-1.8,1L34.2,25.2c-0.3-0.2-0.5-0.6-0.5-1v-1.5
	C33.7,22.4,33.9,22,34.2,21.8z M65.4,11.6l12.4,10.2c0.3,0.2,0.4,0.6,0.4,1v1.5c0,0.4-0.2,0.7-0.4,1L65.4,35.4c-0.7,0.6-1.7,0-1.7-1
	V31c0-0.4,0.2-0.7,0.4-1l7.8-6.5v-0.1l-7.8-6.9c-0.3-0.2-0.4-0.6-0.4-0.9v-3C63.7,11.6,64.7,11.1,65.4,11.6z"/>
</svg>
